<?xml version="1.0" encoding="UTF-8"?>
<!DOCTYPE svg PUBLIC "-//W3C//DTD SVG 1.1//EN" "http://www.w3.org/Graphics/SVG/1.1/DTD/svg11.dtd">
<svg version="1.2" width="132.56mm" height="35.19mm" viewBox="0 0 13256 3519" preserveAspectRatio="xMidYMid" fill-rule="evenodd" stroke-width="28.222" stroke-linejoin="round" xmlns="http://www.w3.org/2000/svg" xmlns:ooo="http://xml.openoffice.org/svg/export" xmlns:xlink="http://www.w3.org/1999/xlink" xmlns:presentation="http://sun.com/xmlns/staroffice/presentation" xmlns:smil="http://www.w3.org/2001/SMIL20/" xmlns:anim="urn:oasis:names:tc:opendocument:xmlns:animation:1.0" xml:space="preserve">
 <defs class="ClipPathGroup">
  <clipPath id="presentation_clip_path" clipPathUnits="userSpaceOnUse">
   <rect x="0" y="0" width="13256" height="3519"/>
  </clipPath>
  <clipPath id="presentation_clip_path_shrink" clipPathUnits="userSpaceOnUse">
   <rect x="13" y="3" width="13230" height="3512"/>
  </clipPath>
 </defs>
 <defs class="TextShapeIndex">
  <g ooo:slide="id1" ooo:id-list="id3"/>
 </defs>
 <defs class="EmbeddedBulletChars">
  <g id="bullet-char-template-57356" transform="scale(0.00048828125,-0.00048828125)">
   <path d="M 580,1141 L 1163,571 580,0 -4,571 580,1141 Z"/>
  </g>
  <g id="bullet-char-template-57354" transform="scale(0.00048828125,-0.00048828125)">
   <path d="M 8,1128 L 1137,1128 1137,0 8,0 8,1128 Z"/>
  </g>
  <g id="bullet-char-template-10146" transform="scale(0.00048828125,-0.00048828125)">
   <path d="M 174,0 L 602,739 174,1481 1456,739 174,0 Z M 1358,739 L 309,1346 659,739 1358,739 Z"/>
  </g>
  <g id="bullet-char-template-10132" transform="scale(0.00048828125,-0.00048828125)">
   <path d="M 2015,739 L 1276,0 717,0 1260,543 174,543 174,936 1260,936 717,1481 1274,1481 2015,739 Z"/>
  </g>
  <g id="bullet-char-template-10007" transform="scale(0.00048828125,-0.00048828125)">
   <path d="M 0,-2 C -7,14 -16,27 -25,37 L 356,567 C 262,823 215,952 215,954 215,979 228,992 255,992 264,992 276,990 289,987 310,991 331,999 354,1012 L 381,999 492,748 772,1049 836,1024 860,1049 C 881,1039 901,1025 922,1006 886,937 835,863 770,784 769,783 710,716 594,584 L 774,223 C 774,196 753,168 711,139 L 727,119 C 717,90 699,76 672,76 641,76 570,178 457,381 L 164,-76 C 142,-110 111,-127 72,-127 30,-127 9,-110 8,-76 1,-67 -2,-52 -2,-32 -2,-23 -1,-13 0,-2 Z"/>
  </g>
  <g id="bullet-char-template-10004" transform="scale(0.00048828125,-0.00048828125)">
   <path d="M 285,-33 C 182,-33 111,30 74,156 52,228 41,333 41,471 41,549 55,616 82,672 116,743 169,778 240,778 293,778 328,747 346,684 L 369,508 C 377,444 397,411 428,410 L 1163,1116 C 1174,1127 1196,1133 1229,1133 1271,1133 1292,1118 1292,1087 L 1292,965 C 1292,929 1282,901 1262,881 L 442,47 C 390,-6 338,-33 285,-33 Z"/>
  </g>
  <g id="bullet-char-template-9679" transform="scale(0.00048828125,-0.00048828125)">
   <path d="M 813,0 C 632,0 489,54 383,161 276,268 223,411 223,592 223,773 276,916 383,1023 489,1130 632,1184 813,1184 992,1184 1136,1130 1245,1023 1353,916 1407,772 1407,592 1407,412 1353,268 1245,161 1136,54 992,0 813,0 Z"/>
  </g>
  <g id="bullet-char-template-8226" transform="scale(0.00048828125,-0.00048828125)">
   <path d="M 346,457 C 273,457 209,483 155,535 101,586 74,649 74,723 74,796 101,859 155,911 209,963 273,989 346,989 419,989 480,963 531,910 582,859 608,796 608,723 608,648 583,586 532,535 482,483 420,457 346,457 Z"/>
  </g>
  <g id="bullet-char-template-8211" transform="scale(0.00048828125,-0.00048828125)">
   <path d="M -4,459 L 1135,459 1135,606 -4,606 -4,459 Z"/>
  </g>
  <g id="bullet-char-template-61548" transform="scale(0.00048828125,-0.00048828125)">
   <path d="M 173,740 C 173,903 231,1043 346,1159 462,1274 601,1332 765,1332 928,1332 1067,1274 1183,1159 1299,1043 1357,903 1357,740 1357,577 1299,437 1183,322 1067,206 928,148 765,148 601,148 462,206 346,322 231,437 173,577 173,740 Z"/>
  </g>
 </defs>
 <defs class="TextEmbeddedBitmaps"/>
 <g>
  <g id="id2" class="Master_Slide">
   <g id="bg-id2" class="Background"/>
   <g id="bo-id2" class="BackgroundObjects"/>
  </g>
 </g>
 <g class="SlideGroup">
  <g>
   <g id="container-id1">
    <g id="id1" class="Slide" clip-path="url(#presentation_clip_path)">
     <g class="Page">
      <g class="Graphic">
       <g id="id3">
        <rect class="BoundingBox" stroke="none" fill="none" x="0" y="0" width="13256" height="3519"/>
        <path fill="rgb(0,0,0)" stroke="none" d="M 1952,175 C 1925,175 1794,175 1768,122 1742,70 1716,44 1611,44 1533,44 1454,96 1428,175 1323,463 1585,882 1611,1144 878,541 -118,1144 66,1824 144,1694 380,1563 563,1563 511,1563 328,1667 275,1798 485,1824 642,1877 668,1903 720,1929 720,1955 642,2086 616,2165 144,2924 144,3474 L 459,3474 459,3474 C 380,3370 328,3343 328,3134 406,2610 851,2270 1061,2139 982,2689 1113,3082 1192,3474 1244,3474 1559,3474 1559,3474 1480,3396 1323,3370 1297,3291 982,2427 1454,2113 1742,1798 2292,1196 1218,358 1716,253 1873,227 1925,227 1952,227 1952,227 1978,227 1978,201 L 1952,175 1952,175 Z"/>
        <path fill="rgb(26,26,26)" stroke="none" d="M 4178,1746 L 4100,620 3942,620 3550,1484 3157,620 2973,620 2921,1746 3078,1746 3104,908 3497,1746 3602,1746 3969,908 4021,1746 4178,1746 4178,1746 Z M 4964,934 L 4964,1432 C 4964,1536 4886,1641 4755,1641 4624,1641 4545,1536 4545,1432 L 4545,934 4388,934 4388,1458 C 4388,1641 4519,1772 4702,1772 4833,1772 4912,1720 4964,1641 L 4964,1746 5121,1746 5121,934 4964,934 4964,934 Z M 5436,777 C 5488,777 5514,751 5514,672 5514,620 5488,594 5436,594 5357,594 5331,620 5331,672 5331,751 5357,777 5436,777 L 5436,777 Z M 5357,1746 L 5488,1746 5488,934 5357,934 5357,1746 5357,1746 Z M 6064,1641 C 5986,1641 5933,1589 5933,1484 L 5933,1065 6195,1065 6195,934 5933,934 5933,725 5776,725 5776,934 5645,934 5645,1065 5776,1065 5776,1536 C 5776,1667 5881,1772 6012,1772 6090,1772 6143,1746 6195,1720 L 6195,1615 C 6169,1615 6117,1641 6064,1641 L 6064,1641 Z M 6719,1772 C 6955,1772 7112,1589 7112,1353 7112,1091 6955,934 6719,934 6457,934 6300,1091 6300,1353 6300,1589 6457,1772 6719,1772 L 6719,1772 Z M 6719,1641 C 6562,1641 6457,1510 6457,1353 6457,1170 6562,1065 6719,1065 6850,1065 6955,1170 6955,1353 6955,1510 6850,1641 6719,1641 L 6719,1641 Z M 8605,934 C 8500,934 8396,986 8343,1065 8291,986 8212,934 8081,934 7977,934 7898,986 7846,1065 L 7846,934 7688,934 7688,1746 7846,1746 7846,1274 C 7846,1144 7924,1065 8029,1065 8160,1065 8239,1144 8239,1274 L 8239,1746 8396,1746 8396,1274 C 8396,1144 8474,1065 8579,1065 8710,1065 8789,1144 8789,1274 L 8789,1746 8946,1746 8946,1248 C 8946,1065 8815,934 8605,934 L 8605,934 Z M 9443,934 C 9313,934 9234,960 9155,1039 L 9208,1144 C 9260,1091 9339,1065 9417,1065 9548,1065 9627,1144 9627,1248 L 9627,1301 C 9574,1274 9496,1274 9417,1274 9234,1274 9103,1379 9103,1510 9103,1667 9208,1772 9365,1772 9470,1772 9574,1694 9627,1615 L 9627,1746 9784,1746 9784,1248 C 9784,1065 9653,934 9443,934 L 9443,934 Z M 9417,1641 C 9313,1641 9260,1589 9260,1510 9260,1432 9339,1379 9443,1379 9496,1379 9574,1379 9627,1405 9627,1563 9522,1641 9417,1641 L 9417,1641 Z M 10072,777 C 10125,777 10177,751 10177,672 10177,620 10125,594 10072,594 10020,594 9994,620 9994,672 9994,751 10020,777 10072,777 L 10072,777 Z M 9994,1746 L 10151,1746 10151,934 9994,934 9994,1746 9994,1746 Z M 10622,1772 C 10832,1772 10963,1667 10963,1510 10963,1379 10832,1327 10701,1301 L 10648,1274 C 10570,1248 10491,1222 10491,1170 10491,1091 10570,1065 10648,1065 10727,1065 10806,1065 10858,1117 L 10937,1013 C 10858,960 10753,934 10648,934 10465,934 10334,1039 10334,1170 10334,1301 10439,1353 10570,1379 L 10648,1405 C 10727,1432 10806,1458 10806,1536 10806,1589 10727,1641 10648,1641 10544,1641 10465,1615 10413,1589 L 10334,1667 C 10413,1746 10517,1772 10622,1772 L 10622,1772 Z M 3550,2348 L 3550,2505 C 3497,2401 3392,2348 3235,2348 3026,2348 2868,2505 2868,2741 2868,3003 3026,3160 3235,3160 3392,3160 3497,3108 3550,3003 L 3550,3474 3707,3474 3707,2348 3550,2348 3550,2348 Z M 3288,3029 C 3130,3029 3026,2924 3026,2741 3026,2584 3130,2479 3288,2479 3445,2479 3550,2584 3550,2741 3550,2924 3445,3029 3288,3029 L 3288,3029 Z M 4493,2348 L 4493,2820 C 4493,2951 4388,3029 4283,3029 4152,3029 4073,2951 4073,2820 L 4073,2348 3916,2348 3916,2846 C 3916,3055 4047,3160 4231,3160 4335,3160 4440,3134 4493,3029 L 4493,3160 4650,3160 4650,2348 4493,2348 4493,2348 Z M 5593,2741 C 5593,2505 5436,2348 5200,2348 4964,2348 4807,2505 4807,2767 4807,3003 4964,3160 5200,3160 5357,3160 5488,3108 5567,3003 L 5436,2924 C 5383,3003 5305,3055 5200,3055 5069,3055 4990,2951 4990,2820 L 5593,2820 C 5593,2793 5593,2767 5593,2741 L 5593,2741 Z M 5200,2453 C 5331,2453 5409,2558 5436,2715 L 4990,2715 C 4990,2558 5069,2453 5200,2453 L 5200,2453 Z M 13111,3160 C 13163,3160 13216,3134 13216,3055 13216,3003 13163,2951 13111,2951 13058,2951 13006,3003 13006,3055 13006,3134 13058,3160 13111,3160 L 13111,3160 Z M 6431,3160 C 6274,3160 6169,3134 6090,3055 L 6195,2924 C 6274,2951 6352,2977 6431,2977 6483,2977 6510,2951 6510,2924 6510,2898 6510,2898 6483,2872 6457,2872 6431,2846 6405,2846 L 6326,2820 C 6248,2820 6195,2793 6169,2741 6117,2715 6090,2663 6090,2610 6090,2532 6117,2453 6195,2401 6248,2348 6326,2322 6431,2322 6562,2322 6667,2348 6772,2401 L 6667,2584 C 6588,2532 6536,2532 6457,2532 6379,2532 6352,2532 6352,2558 6352,2584 6405,2610 6457,2636 L 6510,2636 C 6614,2663 6667,2689 6719,2741 6745,2767 6772,2820 6772,2898 6772,2977 6745,3055 6693,3108 6614,3134 6536,3160 6431,3160 L 6431,3160 Z M 7348,3160 C 7191,3160 7086,3134 7007,3055 6929,2977 6876,2872 6876,2741 6876,2610 6929,2505 7007,2427 7086,2348 7191,2322 7348,2322 7479,2322 7584,2348 7662,2427 7741,2505 7793,2610 7793,2741 7793,2872 7741,2977 7662,3055 7584,3134 7479,3160 7348,3160 L 7348,3160 Z M 7191,2898 C 7243,2924 7269,2951 7348,2951 7400,2951 7426,2924 7479,2898 7505,2846 7531,2793 7531,2741 7531,2689 7505,2636 7479,2584 7426,2558 7400,2532 7348,2532 7269,2532 7243,2558 7191,2584 7165,2636 7138,2689 7138,2741 7138,2820 7165,2846 7191,2898 L 7191,2898 Z M 8343,2191 C 8317,2191 8291,2191 8265,2217 8265,2217 8239,2244 8239,2270 L 8239,2348 8422,2348 8422,2558 8239,2558 8239,3160 7977,3160 7977,2558 7872,2558 7872,2348 7977,2348 7977,2244 C 7977,2165 8003,2086 8055,2034 8108,1982 8186,1982 8265,1982 8343,1982 8396,1982 8448,2008 L 8448,2191 C 8422,2191 8396,2191 8343,2191 L 8343,2191 Z M 8972,2951 C 8998,2951 9051,2951 9103,2924 L 9103,3134 C 9024,3160 8972,3160 8867,3160 8789,3160 8736,3134 8684,3082 8631,3055 8605,2977 8605,2898 L 8605,2558 8474,2558 8474,2348 8605,2348 8605,2086 8867,2086 8867,2348 9077,2348 9077,2558 8867,2558 8867,2846 C 8867,2872 8867,2898 8893,2924 8920,2951 8946,2951 8972,2951 L 8972,2951 Z M 10229,2348 L 10517,2348 10203,3160 9967,3160 9810,2663 9679,3160 9417,3160 9129,2348 9417,2348 9574,2872 9705,2348 9915,2348 10072,2872 10229,2348 10229,2348 Z M 10937,2322 C 11041,2322 11120,2348 11199,2401 11251,2479 11277,2558 11277,2636 L 11277,3160 11041,3160 11041,3055 C 10989,3134 10910,3160 10806,3160 10727,3160 10648,3134 10596,3108 10544,3055 10517,2977 10517,2898 10517,2820 10570,2767 10622,2715 10701,2663 10779,2636 10884,2636 10937,2636 10989,2636 11041,2663 11041,2558 10963,2532 10858,2532 10806,2532 10727,2532 10675,2584 L 10570,2427 C 10675,2348 10779,2322 10937,2322 L 10937,2322 Z M 10884,2977 C 10937,2977 10963,2977 10989,2951 11015,2924 11041,2872 11041,2820 10989,2820 10963,2820 10910,2820 10884,2820 10858,2820 10832,2846 10806,2846 10806,2872 10806,2898 10806,2951 10832,2977 10884,2977 L 10884,2977 Z M 11722,2427 C 11775,2348 11880,2322 12011,2322 L 11984,2558 C 11906,2558 11853,2584 11801,2610 11749,2636 11722,2689 11722,2741 L 11722,3160 11461,3160 11461,2348 11722,2348 11722,2427 11722,2427 Z M 12875,2741 C 12875,2767 12875,2793 12875,2846 L 12299,2846 C 12325,2924 12377,2977 12456,2977 12535,2977 12587,2951 12639,2898 L 12823,3003 C 12796,3055 12744,3082 12692,3134 12613,3160 12561,3160 12482,3160 12351,3160 12246,3134 12168,3055 12089,2977 12037,2872 12037,2741 12037,2636 12089,2532 12168,2453 12220,2348 12325,2322 12456,2322 12587,2322 12692,2348 12770,2427 12849,2505 12875,2610 12875,2741 L 12875,2741 Z M 12456,2532 C 12377,2532 12325,2558 12325,2663 L 12613,2663 C 12587,2558 12535,2532 12456,2532 L 12456,2532 Z"/>
       </g>
      </g>
     </g>
    </g>
   </g>
  </g>
 </g>
</svg>